<svg width="31" height="30" viewBox="0 0 31 30" fill="none" xmlns="http://www.w3.org/2000/svg">
<circle cx="15.5" cy="15" r="15" fill="#881010" fill-opacity="0.4"/>
<path d="M22.5 9.50217H17.95C17.8352 8.93712 17.5286 8.42911 17.0821 8.06422C16.6356 7.69933 16.0767 7.5 15.5 7.5C14.9233 7.5 14.3644 7.69933 13.9179 8.06422C13.4714 8.42911 13.1648 8.93712 13.05 9.50217H8.5C8.36739 9.50217 8.24021 9.55484 8.14645 9.64859C8.05268 9.74235 8 9.8695 8 10.0021C8 10.1347 8.05268 10.2618 8.14645 10.3556C8.24021 10.4493 8.36739 10.502 8.5 10.502H22.5C22.6326 10.502 22.7598 10.4493 22.8536 10.3556C22.9473 10.2618 23 10.1347 23 10.0021C23 9.8695 22.9473 9.74235 22.8536 9.64859C22.7598 9.55484 22.6326 9.50217 22.5 9.50217ZM15.5 8.50234C15.8095 8.50321 16.1111 8.59976 16.3635 8.77876C16.616 8.95776 16.8068 9.21045 16.91 9.50217H14.09C14.1932 9.21045 14.384 8.95776 14.6365 8.77876C14.8889 8.59976 15.1905 8.50321 15.5 8.50234ZM20.69 11.5418C20.5989 11.5035 20.4986 11.4931 20.4016 11.5118C20.3046 11.5305 20.2153 11.5774 20.145 11.6468C20.0987 11.6935 20.062 11.7489 20.0371 11.8098C20.0122 11.8707 19.9996 11.936 20 12.0018C20 12.1343 20.0527 12.2615 20.1464 12.3552C20.2402 12.449 20.3674 12.5017 20.5 12.5017C20.6326 12.5017 20.7598 12.449 20.8536 12.3552C20.9473 12.2615 21 12.1343 21 12.0018C20.9982 11.8694 20.9464 11.7426 20.855 11.6468C20.8074 11.6013 20.7514 11.5656 20.69 11.5418ZM20.5 13.5015C20.3674 13.5015 20.2402 13.5542 20.1464 13.6479C20.0527 13.7417 20 13.8688 20 14.0014V15.5012C20 15.6338 20.0527 15.7609 20.1464 15.8547C20.2402 15.9484 20.3674 16.0011 20.5 16.0011C20.6326 16.0011 20.7598 15.9484 20.8536 15.8547C20.9473 15.7609 21 15.6338 21 15.5012V14.0014C21 13.8688 20.9473 13.7417 20.8536 13.6479C20.7598 13.5542 20.6326 13.5015 20.5 13.5015ZM20.5 17.0009C20.3674 17.0009 20.2402 17.0536 20.1464 17.1473C20.0527 17.2411 20 17.3682 20 17.5008V21.0003C20 21.1328 19.9473 21.26 19.8536 21.3537C19.7598 21.4475 19.6326 21.5002 19.5 21.5002H11.5C11.3674 21.5002 11.2402 21.4475 11.1464 21.3537C11.0527 21.26 11 21.1328 11 21.0003V12.0018C11 11.8692 10.9473 11.742 10.8536 11.6483C10.7598 11.5545 10.6326 11.5018 10.5 11.5018C10.3674 11.5018 10.2402 11.5545 10.1464 11.6483C10.0527 11.742 10 11.8692 10 12.0018V21.0003C10 21.398 10.158 21.7795 10.4393 22.0607C10.7206 22.342 11.1022 22.5 11.5 22.5H19.5C19.8978 22.5 20.2794 22.342 20.5607 22.0607C20.842 21.7795 21 21.398 21 21.0003V17.5008C21 17.3682 20.9473 17.2411 20.8536 17.1473C20.7598 17.0536 20.6326 17.0009 20.5 17.0009Z" fill="#881010"/>
<path d="M13.5 17.7V13.8C13.5 13.7204 13.4473 13.6441 13.3536 13.5879C13.2598 13.5316 13.1326 13.5 13 13.5C12.8674 13.5 12.7402 13.5316 12.6464 13.5879C12.5527 13.6441 12.5 13.7204 12.5 13.8V17.7C12.5 17.7796 12.5527 17.8559 12.6464 17.9121C12.7402 17.9684 12.8674 18 13 18C13.1326 18 13.2598 17.9684 13.3536 17.9121C13.4473 17.8559 13.5 17.7796 13.5 17.7ZM16 17.7V13.8C16 13.7204 15.9473 13.6441 15.8536 13.5879C15.7598 13.5316 15.6326 13.5 15.5 13.5C15.3674 13.5 15.2402 13.5316 15.1464 13.5879C15.0527 13.6441 15 13.7204 15 13.8V17.7C15 17.7796 15.0527 17.8559 15.1464 17.9121C15.2402 17.9684 15.3674 18 15.5 18C15.6326 18 15.7598 17.9684 15.8536 17.9121C15.9473 17.8559 16 17.7796 16 17.7ZM18.5 17.7V13.8C18.5 13.7204 18.4473 13.6441 18.3536 13.5879C18.2598 13.5316 18.1326 13.5 18 13.5C17.8674 13.5 17.7402 13.5316 17.6464 13.5879C17.5527 13.6441 17.5 13.7204 17.5 13.8V17.7C17.5 17.7796 17.5527 17.8559 17.6464 17.9121C17.7402 17.9684 17.8674 18 18 18C18.1326 18 18.2598 17.9684 18.3536 17.9121C18.4473 17.8559 18.5 17.7796 18.5 17.7Z" fill="#881010"/>
</svg>
