<svg width="21" height="22" viewBox="0 0 21 22" fill="none" xmlns="http://www.w3.org/2000/svg">
<g clip-path="url(#clip0_1_4)">
<path d="M19.0606 6.33779C19.0081 6.2385 18.9185 6.16402 18.8112 6.1306C18.704 6.09717 18.5879 6.10752 18.4883 6.15938C18.3887 6.21124 18.3136 6.3004 18.2795 6.40741C18.2453 6.51442 18.2549 6.63058 18.3061 6.73055C19.219 8.47299 19.5497 10.462 19.25 12.4061C18.9502 14.3502 18.0356 16.1472 16.6403 17.5337C13.0371 21.1366 7.17359 21.1377 3.56887 17.5334C3.50938 17.4739 3.43359 17.4334 3.35108 17.417C3.26857 17.4006 3.18306 17.4091 3.10535 17.4413C3.02764 17.4735 2.96124 17.5281 2.91455 17.598C2.86785 17.668 2.84296 17.7502 2.84302 17.8344V20.2793C2.84302 20.3921 2.88782 20.5002 2.96757 20.58C3.04732 20.6597 3.15548 20.7045 3.26826 20.7045C3.38104 20.7045 3.4892 20.6597 3.56895 20.58C3.6487 20.5002 3.6935 20.3921 3.6935 20.2793V18.7947C5.4908 20.2719 7.74312 21.083 10.0696 21.0909C12.396 21.0988 14.6537 20.3029 16.461 18.8379C18.2682 17.3729 19.5141 15.3287 19.9878 13.051C20.4615 10.7733 20.1339 8.40185 19.0606 6.33779Z" fill="#FD8F82"/>
<path d="M3.56874 4.46227C7.17308 0.858307 13.0365 0.858686 16.6401 4.46189C16.6996 4.52146 16.7753 4.56204 16.8578 4.57851C16.9403 4.59497 17.0259 4.58658 17.1036 4.55438C17.1813 4.52219 17.2478 4.46765 17.2945 4.39767C17.3412 4.32768 17.3661 4.24541 17.366 4.16128V1.71636C17.366 1.60357 17.3212 1.49541 17.2414 1.41567C17.1617 1.33592 17.0535 1.29112 16.9407 1.29112C16.828 1.29112 16.7198 1.33592 16.6401 1.41567C16.5603 1.49541 16.5155 1.60357 16.5155 1.71636V3.20093C12.5547 -0.0605271 6.66929 0.158893 2.96751 3.86066C1.44364 5.37467 0.444819 7.33701 0.117442 9.46003C-0.209935 11.5831 0.151353 13.7551 1.14835 15.6579C1.20086 15.7571 1.29052 15.8316 1.39775 15.865C1.50498 15.8985 1.62107 15.8881 1.7207 15.8363C1.82033 15.7844 1.8954 15.6952 1.92953 15.5882C1.96366 15.4812 1.95408 15.3651 1.90288 15.2651C0.990005 13.5227 0.659221 11.5337 0.959007 9.58969C1.25879 7.64563 2.17338 5.84871 3.56874 4.46227Z" fill="#FD8F82"/>
<path d="M4.53564 10.9355V15.638C4.53655 15.9455 4.65907 16.24 4.87645 16.4574C5.09382 16.6748 5.38839 16.7973 5.6958 16.7982H14.5129C14.8203 16.7973 15.1149 16.6748 15.3323 16.4574C15.5497 16.2401 15.6722 15.9455 15.6731 15.638V10.9355C15.6722 10.6281 15.5497 10.3335 15.3323 10.1162C15.1149 9.89879 14.8203 9.77627 14.5129 9.77539H5.6958C5.38839 9.7763 5.09383 9.89883 4.87645 10.1162C4.65908 10.3336 4.53656 10.6281 4.53564 10.9355ZM13.1981 12.3782C13.3778 12.3782 13.5535 12.4315 13.7029 12.5313C13.8523 12.6312 13.9688 12.7731 14.0376 12.9391C14.1064 13.1052 14.1243 13.2878 14.0893 13.4641C14.0542 13.6404 13.9677 13.8023 13.8406 13.9293C13.7135 14.0564 13.5516 14.143 13.3754 14.178C13.1991 14.2131 13.0164 14.1951 12.8504 14.1263C12.6843 14.0575 12.5424 13.9411 12.4426 13.7916C12.3428 13.6422 12.2895 13.4665 12.2895 13.2868C12.2897 13.0459 12.3855 12.8149 12.5559 12.6446C12.7262 12.4742 12.9572 12.3784 13.1981 12.3782ZM10.1044 12.3782C10.2841 12.3782 10.4597 12.4315 10.6092 12.5313C10.7586 12.6312 10.8751 12.7731 10.9438 12.9391C11.0126 13.1052 11.0306 13.2878 10.9955 13.4641C10.9605 13.6404 10.8739 13.8023 10.7469 13.9293C10.6198 14.0564 10.4579 14.143 10.2816 14.178C10.1054 14.2131 9.92266 14.1951 9.75663 14.1263C9.5906 14.0575 9.44869 13.9411 9.34885 13.7916C9.24901 13.6422 9.19572 13.4665 9.19572 13.2868C9.19595 13.0459 9.29175 12.8149 9.46211 12.6446C9.63246 12.4742 9.86344 12.3784 10.1044 12.3782ZM7.01061 12.3782C7.19032 12.3782 7.36599 12.4315 7.51542 12.5313C7.66484 12.6312 7.78131 12.7731 7.85008 12.9391C7.91885 13.1052 7.93685 13.2878 7.90179 13.4641C7.86672 13.6404 7.78018 13.8023 7.65311 13.9293C7.52603 14.0564 7.36413 14.143 7.18787 14.178C7.01161 14.2131 6.82891 14.1951 6.66288 14.1263C6.49685 14.0575 6.35494 13.9411 6.2551 13.7916C6.15526 13.6422 6.10197 13.4665 6.10197 13.2868C6.1022 13.0459 6.198 12.8149 6.36836 12.6446C6.53871 12.4742 6.76969 12.3784 7.01061 12.3782Z" fill="#FD8F82"/>
<path d="M13.8708 8.92465V7.37768C13.8708 6.37878 13.474 5.4208 12.7677 4.71447C12.0614 4.00814 11.1034 3.61133 10.1045 3.61133C9.10559 3.61133 8.1476 4.00814 7.44127 4.71447C6.73495 5.4208 6.33813 6.37878 6.33813 7.37768V8.92465H7.18863V7.37768C7.18863 6.60434 7.49584 5.86268 8.04267 5.31584C8.5895 4.76901 9.33117 4.4618 10.1045 4.4618C10.8778 4.4618 11.6195 4.76901 12.1663 5.31584C12.7132 5.86268 13.0204 6.60434 13.0204 7.37768V8.92465H13.8708Z" fill="#FD8F82"/>
</g>
<defs>
<clipPath id="clip0_1_4">
<rect width="21" height="22" fill="white"/>
</clipPath>
</defs>
</svg>
